<?xml version="1.0" standalone="no"?>
<!DOCTYPE svg PUBLIC "-//W3C//DTD SVG 20010904//EN"
 "http://www.w3.org/TR/2001/REC-SVG-20010904/DTD/svg10.dtd">
<svg version="1.0" xmlns="http://www.w3.org/2000/svg"
 width="490.000000pt" height="486.000000pt" viewBox="0 0 490.000000 486.000000"
 preserveAspectRatio="xMidYMid meet">

<g transform="translate(0.000000,486.000000) scale(0.100000,-0.100000)"
fill="#000000" stroke="none">
<path d="M4353 4823 l-223 -3 0 -285 c0 -156 3 -286 8 -288 4 -3 135 -2 292 1
l285 7 1 225 c0 124 -2 253 -4 288 l-4 62 -66 -2 c-37 -2 -167 -4 -289 -5z
m275 -282 c2 -151 0 -196 -10 -202 -7 -5 -100 -9 -205 -9 l-193 0 0 199 0 200
53 3 c28 2 120 3 202 3 l150 0 3 -194z"/>
<path d="M4302 4651 c-10 -6 -12 -29 -8 -92 3 -46 5 -99 5 -117 l1 -33 123 3
122 3 3 123 3 122 -118 0 c-65 0 -124 -4 -131 -9z"/>
<path d="M3483 4803 c-9 -3 -13 -30 -13 -84 l0 -79 -81 0 -80 0 3 -42 3 -43
68 -3 c80 -3 97 6 97 54 0 33 2 34 38 34 l37 0 0 -78 0 -77 -80 -5 -80 -5 0
-40 0 -40 120 0 120 0 3 -76 3 -77 35 -4 c45 -5 53 6 49 67 -4 81 2 95 41 95
33 0 34 -1 34 -42 0 -24 3 -60 6 -80 6 -36 8 -38 46 -38 39 0 39 0 36 -37 -3
-36 -5 -38 -41 -41 l-38 -3 3 -42 c3 -41 4 -42 38 -42 33 0 35 -2 38 -37 3
-36 2 -37 -35 -40 -36 -3 -38 -5 -43 -43 l-5 -40 -120 0 -120 0 -3 38 -3 37
-80 0 -79 0 0 80 0 80 -40 0 c-38 0 -40 2 -40 30 0 17 0 33 0 38 -1 4 16 9 37
12 36 5 38 7 41 43 l3 37 -45 0 -46 0 0 -41 0 -40 -37 3 c-36 3 -38 5 -41 41
-3 36 -4 37 -42 37 -38 0 -39 -1 -42 -37 -3 -36 -5 -38 -40 -41 l-38 -3 0 80
0 81 41 0 40 0 -3 43 c-3 37 -6 42 -28 44 -14 0 -31 1 -37 2 -9 1 -13 23 -13
75 l0 73 38 7 c20 3 56 6 80 6 l42 0 0 80 0 81 -122 -3 -123 -3 -3 -36 c-3
-33 -7 -37 -35 -42 -43 -6 -47 -2 -47 45 l0 41 -197 -7 c-108 -4 -200 -9 -205
-12 -4 -3 -8 -21 -8 -40 0 -32 -2 -34 -35 -34 -34 0 -35 1 -35 40 l0 40 -233
0 c-129 0 -275 -3 -325 -6 l-92 -7 0 -38 c0 -36 1 -38 38 -41 35 -3 37 -5 40
-40 l3 -38 -80 0 -81 0 0 40 c0 40 0 40 -39 40 -39 0 -40 1 -43 38 -3 36 -4
37 -43 37 l-40 0 0 -120 0 -120 43 -3 43 -3 -3 -77 -3 -77 -35 0 c-33 0 -35 2
-40 40 -5 38 -7 40 -40 40 l-35 0 -2 70 c-2 39 -5 75 -7 82 -3 6 -22 13 -43
15 -35 3 -38 6 -41 36 -3 33 -3 33 53 36 16 1 21 9 23 44 l3 43 -78 -3 -78 -3
-3 -38 c-3 -37 -4 -38 -40 -35 -26 2 -36 7 -34 17 2 8 0 26 -3 39 l-6 25 -197
-7 c-108 -4 -200 -10 -204 -14 -4 -4 -5 -40 -1 -79 l6 -72 36 -3 36 -3 5 -80
5 -80 35 0 c33 0 35 -2 38 -37 l3 -37 -118 -3 -118 -3 -3 -123 -3 -123 43 3
43 3 1 65 c1 92 0 90 38 90 33 0 35 -2 38 -37 3 -36 5 -38 41 -41 l37 -3 1
-57 c3 -104 0 -97 44 -97 39 0 40 1 43 38 3 36 4 37 42 37 l39 0 3 82 3 82 35
0 35 1 3 -156 c3 -184 15 -169 -140 -169 l-98 0 0 -40 0 -40 80 0 80 0 0 -120
0 -120 -40 0 -40 0 0 80 0 80 -40 0 -39 0 -3 -77 -3 -78 -37 -3 -38 -3 -2 198
-3 198 -82 3 -83 3 0 -81 0 -80 40 0 c22 0 40 -1 41 -2 0 -2 3 -56 6 -120 l5
-118 -41 0 c-39 0 -40 1 -43 38 -3 36 -4 37 -45 40 -43 3 -43 3 -43 42 0 38
-1 39 -37 42 -35 3 -38 6 -41 35 -3 30 -1 32 35 35 37 3 38 4 41 46 l3 42 -40
0 -41 0 0 40 0 40 40 0 40 0 0 40 0 40 -40 0 -40 0 0 -40 0 -40 -41 0 -40 0 3
-42 c3 -40 4 -42 38 -42 33 -1 35 -3 38 -38 l3 -38 -175 -2 c-97 -1 -186 -2
-198 -2 -22 -1 -23 4 -26 73 -2 41 1 77 7 80 5 3 40 6 78 6 l68 0 5 -40 c5
-38 7 -40 40 -40 34 0 35 1 38 43 l3 42 -40 0 c-39 0 -40 1 -43 38 l-3 37 -77
3 -78 3 0 -41 0 -40 -40 0 -40 0 0 -125 0 -125 80 0 80 0 0 -40 0 -40 40 0 40
0 0 40 0 40 79 0 80 0 3 -37 3 -38 78 -3 77 -3 0 -34 c0 -32 -2 -34 -37 -37
-37 -3 -38 -4 -41 -45 l-3 -41 -77 1 -77 2 -5 40 c-3 23 -10 40 -17 39 -7 -1
-24 -2 -37 -2 -21 -2 -25 -8 -28 -39 l-3 -38 -75 0 -75 0 -3 78 -3 77 -39 0
-40 0 0 -160 0 -160 79 0 80 0 3 38 c3 35 5 37 38 37 33 0 35 -2 38 -37 3 -37
4 -38 43 -38 39 0 39 0 39 -39 0 -39 -1 -40 -37 -43 -36 -3 -38 -5 -41 -40 -3
-36 -5 -38 -37 -38 -32 0 -49 18 -44 46 5 29 -3 35 -38 32 -37 -3 -38 -4 -38
-43 0 -39 1 -40 38 -43 l37 -3 0 -120 0 -119 -35 0 -34 0 -3 83 -3 82 -40 0
-40 0 -3 -242 -2 -243 39 0 c37 0 39 1 44 39 3 22 3 68 1 103 -4 87 0 98 42
98 31 0 39 8 35 34 -5 28 12 46 45 46 l35 0 -3 -117 -3 -118 -37 -3 -38 -3 0
-120 0 -120 -37 3 c-25 2 -38 8 -39 18 -1 8 -2 25 -3 38 -1 19 -7 22 -42 22
l-40 0 3 -42 c3 -42 4 -43 41 -46 l37 -3 0 -80 0 -79 40 0 40 0 0 80 0 80 40
0 40 0 0 -160 0 -160 80 0 80 0 0 -35 c0 -33 -2 -35 -40 -41 l-41 -7 3 -81 3
-81 40 0 c39 0 40 1 45 40 5 37 8 40 37 43 32 3 33 2 33 -37 0 -40 0 -40 42
-43 41 -3 42 -4 43 -38 0 -33 -2 -35 -40 -40 -39 -5 -40 -6 -40 -45 0 -39 1
-40 37 -43 36 -3 38 -5 38 -38 0 -29 -3 -34 -24 -34 -45 0 -56 -10 -56 -51 l0
-39 45 0 45 0 0 39 c0 40 0 40 43 43 l42 3 2 110 c1 61 2 116 3 123 0 7 14 12
35 12 34 0 35 -1 35 -40 0 -42 3 -44 53 -40 25 1 27 -1 27 -39 l0 -41 -41 0
-40 0 3 -42 c3 -42 4 -43 41 -46 35 -3 37 -5 37 -38 l0 -34 -81 0 -80 0 3 -47
c2 -31 7 -48 16 -47 6 1 62 2 122 3 l110 1 0 80 0 80 30 0 c43 0 45 -1 45 -40
0 -34 1 -35 43 -38 42 -3 42 -3 42 -43 0 -39 0 -39 40 -39 39 0 40 -1 40 -35
l0 -35 -147 -2 c-82 -1 -157 -3 -168 -4 -11 -1 -55 -2 -97 -3 l-77 -1 -3 -37
-3 -38 -77 -3 -78 -3 0 36 c0 34 1 35 40 35 l40 0 0 45 0 45 -160 0 -160 0 0
35 0 34 78 3 77 3 3 43 c2 29 -1 42 -10 43 -7 1 -42 2 -78 2 -64 2 -65 2 -68
32 -4 36 -26 55 -65 55 -26 0 -28 3 -25 33 3 29 6 32 43 37 l40 5 0 120 0 120
-42 3 -43 3 0 -120 0 -120 -37 -3 c-36 -3 -38 -5 -43 -43 -5 -38 -7 -40 -41
-43 -32 -3 -38 -7 -43 -32 -9 -47 1 -61 43 -58 34 3 36 5 41 43 5 38 7 40 40
40 33 0 35 -2 40 -40 4 -28 10 -39 19 -37 8 2 25 1 38 -3 20 -5 24 -11 21 -38
-3 -29 -7 -32 -43 -37 l-40 -5 1 -80 2 -80 38 -5 c35 -5 39 -8 42 -37 l3 -31
-73 -6 c-40 -4 -95 -7 -123 -9 l-50 -2 0 -40 c0 -39 1 -40 37 -43 36 -3 38 -5
38 -37 0 -31 -3 -34 -40 -40 -38 -6 -40 -8 -40 -45 0 -36 2 -38 36 -45 44 -8
52 -1 56 45 3 31 6 35 35 38 l33 3 0 -120 0 -121 -35 0 c-34 0 -35 1 -35 41
l0 40 -42 -3 -43 -3 -3 -83 -3 -82 208 2 208 3 3 36 c4 42 16 49 100 49 l52 0
0 -40 0 -40 -40 0 -40 0 0 -45 0 -45 45 0 45 0 0 40 c0 34 3 40 23 41 12 1 26
1 31 0 16 -3 36 22 31 39 -13 40 3 50 81 50 l74 0 0 -40 0 -40 124 0 125 0 3
-42 c3 -41 4 -42 38 -43 33 0 35 -2 38 -37 l3 -38 -40 0 -41 0 0 -83 c0 -46 2
-86 4 -88 3 -3 23 -3 45 -1 40 4 41 5 41 43 0 38 1 39 35 39 l35 0 0 -125 0
-125 40 0 40 0 0 -40 0 -40 40 0 40 0 0 -40 0 -40 -75 0 -75 0 0 40 0 40 -40
0 -40 0 0 85 0 85 -45 0 -45 0 0 -40 0 -40 -40 0 -40 0 0 126 0 126 -27 -5
c-48 -9 -53 -1 -53 84 l0 79 -45 0 -45 0 0 -40 c0 -39 -1 -40 -34 -40 -33 0
-35 2 -38 38 -3 37 -3 37 -48 37 l-45 0 2 -35 c0 -19 1 -38 2 -42 1 -5 19 -8
41 -8 l40 0 0 -85 0 -85 40 0 40 0 0 -75 0 -75 -30 -1 c-16 0 -47 -1 -67 -1
-67 -1 -74 -9 -72 -94 1 -41 6 -77 12 -81 6 -4 25 -7 42 -7 28 -1 30 -4 33
-44 l3 -43 42 3 42 3 3 82 3 82 37 3 c35 3 37 5 42 43 5 36 8 40 37 43 31 3
32 2 35 -40 l3 -43 80 0 80 0 5 -40 c5 -38 7 -40 42 -43 37 -3 38 -4 38 -43
l0 -39 210 0 211 0 -3 88 -3 87 -40 0 c-39 0 -40 -1 -45 -40 -5 -38 -7 -40
-40 -40 -33 0 -35 2 -40 40 -4 28 -10 39 -19 37 -8 -2 -25 -1 -38 3 -22 5 -23
10 -23 85 l0 80 -40 0 -40 0 0 40 0 40 80 0 80 0 0 45 0 45 -40 0 -40 0 0 80
0 80 40 0 39 0 3 83 3 82 38 3 c37 3 37 4 37 48 l0 44 -80 0 -80 0 0 35 c0 34
1 35 40 35 40 0 40 0 40 39 0 39 1 40 38 43 35 3 37 5 42 43 5 38 7 40 40 40
33 0 35 -2 38 -37 4 -42 0 -40 100 -38 l62 1 0 -40 0 -41 -40 0 c-40 0 -40 0
-40 -39 0 -39 -1 -40 -37 -43 -37 -3 -38 -4 -41 -45 l-3 -43 40 0 41 0 0 -80
0 -80 -35 0 c-34 0 -35 1 -35 40 l0 40 -45 0 -46 0 3 -128 3 -127 40 0 c40 0
40 0 43 43 3 41 4 42 38 42 l34 0 0 -79 0 -80 -37 -3 c-37 -3 -38 -4 -41 -44
-3 -38 -1 -42 23 -47 50 -9 65 2 65 44 0 39 0 39 40 39 l40 0 0 85 0 85 40 0
40 0 0 40 c0 39 1 40 34 40 33 0 35 -2 38 -37 3 -36 5 -38 43 -43 38 -5 40 -7
43 -42 2 -21 9 -39 15 -39 7 -1 23 -2 37 -3 21 -1 25 -6 28 -38 l3 -38 -40 0
-41 0 0 -40 0 -40 -119 0 -120 0 -3 -42 c-3 -42 -4 -43 -43 -48 -39 -5 -40 -6
-40 -45 0 -40 0 -40 42 -43 42 -3 42 -3 45 -45 3 -41 4 -42 38 -42 34 -1 35
-2 38 -43 3 -42 4 -42 42 -42 21 0 41 4 44 9 3 4 3 45 -1 89 l-6 81 -36 3
c-33 3 -36 6 -36 33 l0 30 78 3 77 3 0 -126 0 -125 210 0 210 0 0 90 0 90 -80
0 c-90 0 -81 -11 -84 100 l-1 55 123 3 122 3 -2 212 -3 212 -30 2 c-16 0 -36
2 -43 2 -10 1 -12 29 -10 118 l3 118 83 3 83 3 -3 42 c-3 41 -4 42 -40 45
l-38 3 -1 77 c-1 42 -2 84 -3 92 -2 8 -3 48 -4 88 l-2 72 -80 0 c-76 0 -80 1
-81 23 -1 12 -2 29 -3 37 -1 12 -19 16 -83 18 l-83 3 0 -81 0 -80 -69 0 c-93
0 -101 -4 -101 -50 0 -38 -1 -39 -37 -42 -36 -3 -38 -5 -41 -40 -3 -35 -5 -37
-40 -40 -35 -3 -37 -5 -40 -40 -3 -36 -5 -38 -38 -38 -33 0 -34 1 -34 40 l0
40 -40 0 c-39 0 -40 1 -40 35 l0 34 78 3 77 3 3 206 2 207 33 -2 32 -2 3 -122
3 -122 84 0 85 0 0 46 c0 41 -2 45 -22 44 -52 -5 -58 -1 -58 35 l0 34 78 3 77
3 3 42 3 43 -80 0 -81 0 0 40 0 40 80 0 80 0 0 40 0 40 40 0 40 0 0 40 0 40
79 0 80 0 3 42 3 42 50 -1 c28 -1 65 0 83 3 32 5 33 6 30 47 -3 40 -4 42 -39
45 -31 3 -38 7 -42 30 -3 15 -3 30 0 34 2 5 58 8 124 8 l120 0 -3 83 -3 82
-37 3 c-36 3 -38 5 -38 38 l0 34 68 2 c37 1 81 2 97 3 17 1 58 2 93 3 l63 2
-3 43 c-3 41 -4 42 -40 45 -36 3 -38 5 -38 38 0 33 1 34 40 34 l40 0 0 80 0
80 75 0 75 0 0 -35 c0 -34 -1 -35 -41 -35 l-40 0 3 -42 c3 -42 4 -43 40 -46
35 -3 37 -5 40 -40 l3 -37 85 0 85 0 0 40 c0 40 0 40 -42 43 -42 3 -43 4 -43
37 0 33 1 34 43 37 42 3 42 3 42 43 0 39 -1 40 -40 45 l-40 5 -3 78 -3 78 38
-3 c36 -3 38 -5 41 -40 3 -37 4 -38 43 -38 l39 0 0 85 0 85 -120 0 -120 0 0
35 0 34 78 3 77 3 3 38 c4 42 -12 38 162 41 l75 1 3 -37 3 -38 -40 0 -41 0 0
-45 0 -45 40 0 41 0 -3 -77 c-2 -62 -6 -77 -17 -75 -38 8 -60 -8 -63 -46 -2
-24 -8 -37 -18 -38 -65 -4 -61 -1 -58 -46 3 -42 4 -43 41 -46 35 -3 37 -5 37
-38 0 -33 -1 -34 -41 -34 l-40 0 3 -42 3 -43 105 -3 c155 -4 151 -7 146 83 -5
86 -5 85 90 85 l64 0 0 -40 0 -40 -41 0 -40 0 3 -42 c3 -41 5 -43 35 -43 41 0
57 -16 49 -49 -6 -24 -10 -25 -84 -28 l-77 -3 -3 -82 -3 -83 -79 0 c-43 0 -81
-3 -84 -8 -2 -4 -1 -23 3 -42 l7 -35 77 -3 77 -3 0 -34 0 -35 -80 0 -80 0 0
-40 c0 -39 -1 -40 -35 -40 -29 0 -35 4 -37 23 0 12 -2 27 -3 32 -2 6 -3 31 -4
58 l-1 47 -40 0 -41 0 3 78 3 77 120 5 120 5 0 40 0 40 -244 0 c-239 0 -243 0
-251 -21 -10 -24 -8 -50 4 -61 4 -4 40 -8 79 -8 l72 0 3 -77 3 -78 -35 0 c-33
0 -35 2 -38 38 l-3 37 -80 5 -80 5 -3 38 -3 37 -85 0 -84 0 0 -120 0 -119 -77
-3 -78 -3 -3 -42 -3 -43 39 0 c38 0 40 -2 44 -35 2 -20 2 -38 -1 -40 -2 -3
-58 -5 -123 -5 l-118 0 0 -81 0 -80 -37 3 c-33 3 -38 7 -40 28 0 14 -1 31 -2
38 -1 7 -16 12 -41 12 -40 0 -40 0 -40 -39 0 -39 -1 -40 -37 -43 -37 -3 -38
-4 -41 -45 l-3 -42 38 -3 c36 -3 38 -5 41 -40 3 -35 5 -37 40 -40 35 -3 37 -5
42 -43 l5 -40 123 -3 122 -3 0 -34 c0 -34 -1 -35 -40 -35 l-40 0 0 -45 0 -46
123 3 122 3 -4 203 -3 202 41 0 41 0 0 -40 0 -40 125 0 125 0 0 -35 0 -34
-122 -3 -123 -3 0 -45 0 -45 120 0 120 0 3 -37 c3 -37 3 -37 -40 -40 -42 -3
-43 -4 -41 -38 1 -19 2 -38 2 -42 1 -5 19 -8 41 -8 39 0 40 -1 40 -34 0 -33
-2 -35 -37 -38 l-38 -3 -3 -82 -3 -83 -79 0 -80 0 0 -40 0 -40 -80 0 -80 0 0
34 c0 33 2 35 38 38 l37 3 3 83 c2 51 -1 82 -8 83 -5 1 -21 1 -35 1 -14 0 -29
0 -35 -1 -6 -1 -10 -35 -10 -81 l0 -80 -40 0 -40 0 0 -44 0 -45 43 -3 c41 -3
42 -4 42 -38 0 -34 -1 -35 -43 -38 l-43 -3 2 -122 1 -122 -38 -5 c-40 -5 -39
-2 -35 -70 1 -16 8 -20 41 -20 40 0 40 0 40 38 0 21 2 41 5 43 2 3 20 3 40 1
l35 -4 0 -79 0 -79 80 0 80 0 2 -110 c0 -60 1 -116 2 -122 1 -8 -14 -14 -36
-16 l-37 -3 -3 83 -3 83 -77 3 -77 3 -3 37 c-3 36 -4 37 -45 40 l-43 3 0 -125
0 -126 -40 0 -40 0 0 -130 0 -130 85 0 85 0 0 45 c0 46 -2 48 -50 49 -21 1
-25 6 -28 39 l-3 37 116 0 116 0 -3 -38 c-3 -34 -6 -37 -33 -37 -29 -1 -30 -3
-33 -48 l-3 -47 165 0 166 0 0 45 0 45 -37 1 c-21 1 -57 1 -80 0 l-43 -1 0 40
c0 40 0 40 40 40 l40 0 0 170 0 170 75 0 75 0 0 -40 0 -40 -40 0 -41 0 3 -127
3 -128 43 -3 42 -3 0 40 0 41 40 0 c40 0 40 0 40 -39 0 -40 0 -40 43 -43 34
-2 42 -7 43 -23 1 -11 2 -48 3 -83 l1 -63 43 3 c41 3 42 4 45 40 3 36 5 38 37
38 32 0 34 -2 37 -38 l3 -37 85 0 85 0 -2 83 -2 82 39 0 40 0 0 -47 c0 -27 3
-65 6 -86 l7 -37 78 0 79 0 0 45 0 45 -40 0 -40 0 0 40 0 40 79 0 80 0 3 -43
c3 -42 3 -42 46 -45 l42 -3 0 45 0 46 41 0 40 0 -3 42 -3 43 -250 0 -250 0 3
-36 c3 -44 -2 -46 -89 -41 l-67 4 -4 71 c-3 40 -3 75 -1 80 2 4 40 7 84 7 l80
0 -3 128 -3 127 -42 3 -43 3 0 -85 0 -86 -80 0 -80 0 0 39 c0 40 0 40 -42 43
-42 3 -43 4 -46 41 l-3 39 55 -4 c40 -2 56 1 56 10 0 6 -4 12 -9 12 -16 0 -20
51 -4 57 8 3 101 6 206 7 l192 1 3 43 c3 42 3 42 -32 43 -20 1 -40 3 -46 4 -5
1 -28 3 -50 4 -40 1 -40 1 -40 41 l0 40 -40 0 c-40 0 -40 0 -40 40 l0 39 123
3 122 3 -2 78 -2 77 39 0 40 0 0 -80 0 -80 113 0 c61 0 117 -4 124 -8 6 -4 13
-23 15 -42 l3 -35 85 0 85 0 -3 33 c-3 27 1 34 24 42 39 15 52 6 56 -37 3 -38
3 -38 48 -38 l45 0 -3 38 -4 37 41 0 c39 0 40 -1 43 -37 3 -37 4 -38 46 -41
l42 -3 0 45 0 46 -40 0 -40 0 0 40 0 40 41 0 40 0 -3 42 c-3 43 -3 43 -45 46
-42 3 -43 4 -43 38 0 35 2 36 55 38 33 1 31 -6 27 121 l-2 55 -39 0 -38 0 -7
71 c-3 39 -4 75 -1 80 4 5 24 9 46 9 l40 0 -3 43 -3 42 -82 3 -83 3 0 34 0 35
80 0 c85 0 83 -2 83 55 0 32 -4 35 -43 35 l-39 0 -3 83 -3 82 -122 3 -123 3 0
34 0 35 163 2 162 3 0 85 0 85 -37 3 c-33 3 -38 7 -38 28 0 13 0 27 0 32 -1 4
16 9 37 12 l38 5 0 80 0 80 -42 3 c-42 3 -42 3 -45 45 -3 37 -6 42 -28 43 -46
1 -49 4 -52 42 l-3 37 -165 0 -165 0 -3 38 -3 37 205 0 205 0 3 -37 c3 -37 4
-38 46 -41 l42 -3 0 85 0 86 -39 0 c-35 0 -39 3 -43 28 -6 44 0 52 43 52 39 0
39 0 39 40 0 34 -4 41 -24 46 -47 11 -61 2 -64 -43 -3 -41 -4 -42 -45 -45 -40
-3 -41 -4 -42 -38 0 -33 -2 -35 -37 -38 l-38 -3 0 40 c0 40 0 40 -42 43 -42 3
-43 4 -46 40 l-3 37 -82 3 -82 3 -3 77 -3 77 43 3 c46 3 55 17 44 64 -5 20
-12 24 -46 24 -40 0 -40 0 -40 -40 0 -44 -7 -47 -89 -41 -65 5 -81 -5 -81 -49
0 -39 0 -39 43 -42 41 -3 42 -4 42 -38 l0 -35 -82 -3 -83 -3 0 40 c0 39 -1 40
-37 43 -36 3 -38 5 -41 41 -3 36 -4 37 -43 37 l-40 0 3 -42 c2 -35 7 -43 23
-44 52 -3 54 -4 57 -41 3 -36 5 -38 41 -41 35 -3 37 -5 37 -38 l0 -34 -80 0
-80 0 0 40 0 40 -40 0 -40 0 0 120 0 120 163 2 162 3 -1 30 c-1 17 -2 36 -3
43 -1 8 -24 12 -81 12 l-80 0 0 33 0 34 112 7 c61 4 115 3 119 -1 4 -4 9 -24
11 -43 3 -34 5 -35 43 -35 40 0 40 0 43 43 l3 42 -40 0 c-38 0 -39 1 -46 40
-7 39 -8 40 -46 40 l-40 0 3 38 3 37 120 5 120 5 3 78 c3 74 4 77 27 77 44 0
55 10 55 51 l0 39 -85 0 -85 0 0 -80 c0 -69 -2 -80 -17 -81 -10 -1 -25 -2 -33
-3 -8 -2 -75 -3 -147 -4 l-133 -2 0 -80 0 -80 -35 0 -34 0 -3 78 -3 77 -43 3
c-43 3 -43 3 -40 40 l3 37 80 5 80 5 -3 38 -4 37 41 0 41 0 0 -40 0 -41 83 3
82 3 3 43 3 42 -40 0 c-40 0 -41 1 -41 35 0 34 1 35 43 35 23 0 59 3 80 6 35
6 37 8 37 45 l0 38 -82 3 -83 3 -3 158 -3 157 -39 0 c-25 0 -41 -5 -41 -12 -1
-7 -2 -24 -3 -38 -1 -21 -6 -25 -38 -28 l-38 -3 0 80 0 80 38 3 37 3 0 200 0
200 -235 2 c-129 1 -241 -1 -247 -4z m397 -113 c0 -38 -1 -39 -37 -42 -36 -3
-38 -5 -41 -39 -3 -31 -7 -38 -29 -42 -42 -8 -53 2 -53 44 l0 39 -80 0 -80 0
0 35 0 34 78 3 c42 2 114 4 160 5 l82 3 0 -40z m-1060 -100 l0 -120 40 0 c40
0 40 0 40 -39 0 -39 -1 -40 -37 -43 l-38 -3 -3 -77 -3 -78 -34 0 c-32 0 -34 2
-37 37 -3 41 -19 50 -65 39 -19 -5 -24 -13 -23 -34 1 -15 2 -33 1 -39 -1 -15
-57 -18 -66 -3 -3 5 -7 41 -8 80 l-3 70 77 0 c92 0 90 -3 85 125 -3 50 -5 98
-5 108 -1 13 -10 17 -41 17 l-40 0 0 -41 0 -40 -37 3 c-36 3 -38 5 -41 41 -3
36 -4 37 -43 37 -39 0 -39 0 -39 39 l0 39 160 1 160 2 0 -121z m245 85 c0 -27
-3 -30 -37 -33 -38 -3 -38 -3 -38 33 0 36 0 36 38 33 34 -3 37 -6 37 -33z
m-977 -12 l-3 -38 -77 -3 -78 -3 0 -79 0 -80 120 0 120 0 1 -67 c0 -38 1 -90
2 -118 l2 -50 -37 -3 c-36 -3 -37 -2 -40 35 -3 37 -4 38 -43 38 -39 0 -40 -1
-43 -38 -3 -37 -4 -38 -40 -35 -32 3 -37 7 -38 28 -2 51 -3 51 -41 48 -36 -3
-38 -5 -41 -40 -3 -36 -5 -38 -37 -38 -32 0 -34 2 -37 38 -3 36 -4 37 -43 37
l-40 0 -5 -80 -5 -80 -75 0 -75 0 0 35 c0 33 2 35 38 38 l37 3 0 80 0 79 40 0
40 0 0 80 0 80 39 0 c39 0 40 -1 43 -37 3 -36 5 -38 40 -41 l37 -3 3 83 3 83
38 3 c36 3 37 4 37 43 l0 39 81 0 80 0 -3 -37z m323 0 c1 -21 2 -42 4 -48 1
-5 3 -25 3 -42 l2 -33 80 0 80 0 0 -34 0 -34 -152 -4 c-84 -3 -156 -3 -160 -1
-5 2 -8 56 -8 119 l0 114 75 0 75 0 1 -37z m-1291 -54 l0 -80 -37 3 -38 3 -3
78 -3 77 41 0 40 0 0 -81z m568 -33 c-3 -28 -7 -31 -40 -34 -37 -3 -38 -3 -38
32 0 30 3 35 28 38 43 6 53 -2 50 -36z m-406 -43 l3 -78 38 -3 c36 -3 37 -4
37 -42 0 -38 -1 -39 -37 -42 -35 -3 -37 -5 -38 -38 0 -33 -2 -35 -37 -38 l-38
-3 0 80 0 81 -40 0 -40 0 0 40 0 40 40 0 40 0 0 40 c0 39 1 40 35 40 l34 0 3
-77z m2438 -53 l0 -80 -40 0 -40 0 0 73 c0 41 3 77 7 80 3 4 21 7 40 7 l33 0
0 -80z m164 25 c9 -83 1 -105 -40 -105 l-34 0 0 80 0 80 34 0 c33 0 33 0 40
-55z m-819 -75 c0 -33 -2 -35 -37 -38 l-38 -3 0 41 0 41 38 -3 c35 -3 37 -5
37 -38z m-565 -170 l0 -120 -120 0 -120 0 0 120 0 120 120 0 120 0 0 -120z
m-975 30 l0 -75 -35 0 -35 0 -3 78 -3 78 38 -3 38 -3 0 -75z m1461 -5 c10 -40
-1 -55 -41 -55 -33 0 -35 2 -35 34 0 28 4 35 23 39 43 8 47 7 53 -18z m-1623
-87 c9 -137 7 -143 -34 -143 l-34 0 -3 104 c-1 58 0 111 2 118 3 7 18 13 34
13 l29 0 6 -92z m-323 47 c0 -33 -2 -35 -35 -35 -33 0 -35 2 -35 35 0 33 2 35
35 35 33 0 35 -2 35 -35z m2028 -57 l3 -38 -40 0 c-40 0 -41 1 -41 34 0 37 11
46 50 43 21 -2 25 -8 28 -39z m-168 -3 c0 -33 -2 -35 -35 -35 -33 0 -35 2 -35
35 0 33 2 35 35 35 33 0 35 -2 35 -35z m-968 -52 l3 -78 37 -3 c35 -3 37 -5
40 -40 3 -36 4 -37 43 -37 l40 0 3 78 3 77 39 0 40 0 0 -41 0 -41 38 4 c36 3
37 2 42 -37 5 -38 7 -40 40 -40 33 0 35 2 40 40 l5 40 118 3 117 3 0 -41 0
-40 45 0 45 0 0 40 0 41 78 -3 77 -3 3 -37 c3 -35 5 -37 40 -40 35 -3 37 -5
37 -38 l0 -35 -77 -3 -78 -3 0 -79 0 -80 -40 0 -40 0 0 81 0 80 -42 -3 c-42
-3 -43 -4 -46 -40 l-3 -38 -74 0 c-57 0 -74 3 -79 16 -11 30 -6 54 12 55 58 4
57 3 60 47 l3 42 -40 0 -41 0 0 -40 0 -40 -40 0 c-40 0 -40 0 -40 -39 0 -39
-1 -40 -37 -43 l-38 -3 -3 -82 -3 -83 41 0 40 0 0 -40 0 -40 -75 0 -75 0 -1
48 c-1 26 -4 99 -8 162 l-6 115 -117 -3 -118 -3 0 41 0 41 -122 -3 -123 -3 -3
-37 c-3 -35 -5 -37 -40 -40 -35 -3 -37 -5 -40 -40 -3 -36 -5 -38 -38 -38 -28
0 -34 4 -35 23 0 12 -2 54 -4 92 -3 39 -2 82 1 97 l5 27 117 3 117 3 3 37 c3
35 5 37 40 40 35 3 37 5 40 41 3 35 5 37 37 37 l34 0 3 -77z m1296 -25 l3 -38
-40 0 c-40 0 -41 1 -41 33 0 42 7 49 45 45 27 -3 30 -7 33 -40z m-1700 -21 l3
-38 -38 3 c-31 2 -39 7 -41 26 -6 40 5 54 40 50 30 -3 33 -6 36 -41z m1787
-57 c-1 -34 -2 -35 -40 -35 -35 0 -38 2 -40 30 -3 42 2 47 43 43 35 -3 37 -5
37 -38z m-245 -4 c0 -31 -3 -34 -35 -38 -43 -5 -45 -3 -45 39 0 32 1 33 40 33
39 0 40 -1 40 -34z m328 -84 l3 -43 37 3 37 3 3 -77 3 -78 -41 0 -40 0 0 40 0
40 -40 0 -40 0 0 -45 0 -45 40 0 40 0 0 -41 0 -40 43 3 c41 3 42 4 42 41 0 33
3 38 30 43 17 3 53 4 80 2 50 -3 50 -3 50 -38 0 -33 -2 -35 -40 -40 -39 -5
-40 -6 -40 -45 l0 -40 83 -3 82 -3 0 -34 0 -35 -72 -1 c-40 0 -94 -3 -120 -5
l-48 -5 0 41 c0 22 -3 40 -7 40 -5 1 -42 1 -83 2 l-75 2 -3 -82 -3 -82 -39 0
-40 0 0 80 0 80 -40 0 c-40 0 -40 0 -40 39 0 39 1 40 38 43 35 3 37 5 40 41 3
38 2 39 -48 41 -21 1 -26 7 -30 41 -3 22 -5 56 -5 75 l0 35 80 5 80 5 3 43 c3
43 3 43 40 40 36 -3 37 -4 40 -46z m-1948 -18 l0 -34 -114 0 c-109 0 -114 1
-120 23 -12 46 -11 46 107 49 61 2 115 2 120 0 4 -2 7 -19 7 -38z m2440 -48
c0 -30 -3 -34 -32 -39 -42 -6 -48 -2 -48 32 0 36 6 41 47 41 31 0 33 -2 33
-34z m-820 -11 c0 -41 -16 -48 -101 -43 l-54 3 -3 38 -3 37 80 0 81 0 0 -35z
m-1215 -15 l0 -35 -77 -3 -78 -3 0 41 0 41 78 -3 77 -3 0 -35z m1055 -70 l0
-40 40 0 40 0 0 -40 0 -40 -40 0 -40 0 0 -40 0 -40 -80 0 -81 0 3 78 3 77 38
3 c35 3 37 5 37 36 0 41 5 46 47 46 32 0 33 -1 33 -40z m-820 -10 c0 -39 -1
-40 -34 -40 -33 0 -35 -2 -38 -37 -3 -35 -5 -38 -38 -41 -46 -4 -53 -12 -44
-56 6 -35 8 -37 43 -34 34 3 36 5 41 43 5 38 7 40 40 40 l35 0 3 -80 3 -80 79
4 80 3 0 -41 0 -41 -40 0 -40 0 0 -40 0 -40 -120 0 -120 0 0 -80 c0 -78 -4
-86 -34 -81 -4 1 -17 -1 -27 -4 -17 -6 -19 -17 -19 -86 l0 -79 86 0 85 0 -1
103 c-1 56 -1 110 -1 120 1 15 11 17 76 17 l75 0 0 -34 c0 -33 -2 -35 -37 -38
l-38 -3 -3 -122 -3 -123 -79 0 -80 0 0 -40 c0 -39 -1 -40 -34 -40 -33 0 -35 2
-38 38 -3 35 -5 37 -40 40 -35 3 -37 5 -40 40 -3 35 -5 37 -43 42 l-40 5 -3
117 -3 117 83 3 83 3 3 60 c5 93 -1 107 -46 103 -35 -3 -37 -5 -42 -43 -5 -38
-7 -40 -40 -40 l-35 0 -3 118 -3 117 41 0 40 0 0 80 c0 57 4 80 13 81 6 1 19
3 27 4 8 1 39 3 68 4 l52 1 0 33 c0 19 3 37 7 40 3 4 37 7 75 7 l68 0 0 -40z
m-722 -87 l-3 -118 -37 -3 -38 -3 0 -79 0 -79 -77 -3 -78 -3 0 -40 c0 -39 1
-40 38 -43 l37 -3 0 -75 0 -75 -77 3 -78 3 -1 65 c0 92 1 90 -44 90 -39 0 -40
1 -40 34 0 33 2 35 38 38 35 3 37 5 40 41 l3 37 69 0 c105 0 100 -6 100 131
l0 119 35 0 c33 0 35 2 35 33 0 42 5 47 47 47 l34 0 -3 -117z m1302 12 c0 -34
-1 -35 -40 -35 l-40 0 0 -40 0 -40 -49 0 c-27 0 -63 -3 -80 -6 -31 -6 -31 -6
-31 34 0 40 1 41 38 44 35 3 37 5 40 41 l3 37 80 0 79 0 0 -35z m-1138 -12 l3
-38 78 -3 77 -3 0 -34 0 -34 -77 -3 -78 -3 0 -160 0 -160 40 -5 40 -5 3 -77 3
-77 -83 -3 -83 -3 -3 -37 c-3 -36 -5 -38 -38 -38 l-34 0 0 74 0 75 38 3 37 3
3 83 3 82 -41 0 -40 0 0 40 0 40 41 0 41 0 -2 153 c-1 83 -1 155 -1 160 1 4
16 7 35 7 33 0 35 -2 38 -37z m-644 -125 l3 -78 -41 0 -40 0 0 73 c0 41 3 77
7 81 4 4 21 6 38 4 l30 -3 3 -77z m160 40 l3 -38 -40 0 c-40 0 -41 1 -41 33 0
42 7 49 45 45 27 -3 30 -7 33 -40z m2105 -38 c10 -40 -3 -60 -39 -60 -33 0
-34 1 -34 40 0 39 1 40 34 40 25 0 35 -5 39 -20z m-161 -27 c3 -36 5 -38 40
-41 35 -3 37 -5 40 -40 3 -35 5 -37 43 -42 l40 -5 3 -77 3 -78 39 0 c39 0 40
-1 40 -35 l0 -35 -80 0 -79 0 -3 78 -3 77 -77 3 -77 3 -3 37 c-3 35 -5 37 -40
40 -36 3 -38 5 -38 37 0 32 2 34 38 37 29 2 37 7 38 23 3 54 3 55 38 55 33 0
35 -2 38 -37z m-2264 -60 l2 -73 -40 0 c-39 0 -40 1 -40 34 0 33 -2 35 -37 38
-36 3 -38 5 -41 41 l-3 38 78 -3 78 -3 3 -72z m2752 -13 c0 -39 -1 -40 -35
-40 -34 0 -35 1 -35 40 0 39 1 40 35 40 34 0 35 -1 35 -40z m330 -40 l0 -80
-32 3 -33 2 -6 70 c-3 39 -4 73 -2 78 2 4 20 7 39 7 l34 0 0 -80z m-1308 33
l3 -38 85 0 85 0 0 35 c0 33 2 35 38 38 l38 3 -3 -78 -3 -78 -35 0 -35 -1 -3
-82 -3 -82 -34 0 c-32 0 -34 2 -37 38 -3 35 -5 37 -43 42 -38 5 -40 7 -43 43
l-3 37 -80 0 -79 0 0 80 0 80 74 0 75 0 3 -37z m-2024 -20 c-3 -35 -6 -38 -35
-41 -22 -2 -33 1 -34 10 0 7 -2 22 -4 32 -6 29 2 36 41 36 35 0 35 -1 32 -37z
m2922 -94 l0 -80 -36 3 -36 3 -5 64 c-6 82 -1 91 42 91 l35 0 0 -81z m-2760
11 c0 -39 -1 -40 -35 -40 -34 0 -35 1 -35 40 0 39 1 40 35 40 34 0 35 -1 35
-40z m2270 -60 l0 -40 40 0 40 0 1 -62 c1 -35 2 -67 4 -73 1 -5 3 -52 3 -102
l2 -93 40 0 c39 0 40 -1 40 -35 l0 -35 -80 0 -80 0 0 80 0 80 -40 0 c-39 0
-40 1 -40 34 0 33 2 35 38 38 36 3 37 4 40 46 l3 43 -43 -3 c-42 -3 -43 -4
-46 -40 -3 -37 -4 -38 -43 -38 -39 0 -39 0 -39 -40 0 -39 -1 -40 -35 -40 l-35
0 0 75 c0 78 0 78 50 79 22 1 25 6 28 44 3 42 3 42 43 42 39 0 39 0 39 40 0
39 1 40 35 40 34 0 35 -1 35 -40z m-1215 -10 c0 -33 -2 -35 -35 -35 -29 0 -36
4 -38 23 -6 40 5 54 40 50 30 -3 33 -6 33 -38z m645 5 l0 -35 -75 0 -75 0 0
35 0 35 75 0 75 0 0 -35z m-1372 -92 l-3 -118 -35 0 -35 0 -5 80 c-5 77 -6 80
-30 81 -40 2 -49 -5 -52 -44 -3 -35 -5 -37 -38 -37 l-35 0 -3 64 c-2 35 -1 70
2 77 4 11 33 14 121 14 l116 0 -3 -117z m402 42 l0 -75 -35 0 -35 0 0 75 0 75
35 0 35 0 0 -75z m1140 -116 l0 -119 40 0 40 0 0 -75 0 -75 -35 0 c-31 0 -35
3 -35 28 0 38 -13 54 -41 52 -49 -4 -49 -4 -49 80 l0 80 -40 0 c-39 0 -40 1
-40 34 0 33 2 35 38 38 35 3 37 5 40 40 3 33 6 37 35 40 18 2 35 2 40 0 4 -2
7 -57 7 -123z m-2112 69 c3 -37 3 -38 -32 -38 -35 0 -36 1 -36 41 0 39 1 40
33 37 29 -3 32 -6 35 -40z m242 2 c0 -39 -1 -40 -35 -40 -34 0 -35 1 -35 40 0
39 1 40 35 40 34 0 35 -1 35 -40z m1628 -72 c3 -37 4 -38 43 -38 38 0 39 -1
39 -34 l0 -34 -67 -4 c-38 -2 -74 -2 -80 0 -9 3 -13 28 -13 79 l0 74 38 -3
c35 -3 37 -5 40 -40z m-1704 10 c13 -50 8 -58 -34 -58 -39 0 -40 1 -40 33 0
41 5 47 41 47 19 0 28 -6 33 -22z m2674 -75 c-3 -35 -6 -38 -35 -41 -33 -3
-35 -1 -35 43 0 14 0 27 1 30 1 3 17 5 37 5 35 0 35 -1 32 -37z m-2508 -29 c0
-33 1 -34 39 -34 40 0 40 0 43 -42 3 -42 4 -43 41 -46 35 -3 37 -5 37 -38 l0
-34 -80 0 -80 0 0 -45 0 -45 80 0 80 0 0 -35 0 -35 -57 -2 c-32 0 -103 -2
-158 -2 l-100 -1 -3 38 -3 37 40 0 41 0 0 45 0 45 -40 0 c-39 0 -40 1 -40 34
0 33 2 35 38 38 36 3 37 4 40 46 l3 42 -40 0 c-40 0 -41 1 -41 35 l0 34 68 3
c87 4 92 2 92 -38z m320 12 c0 -36 -18 -51 -51 -41 -14 5 -19 16 -19 41 0 32
2 34 35 34 33 0 35 -2 35 -34z m242 4 c6 -37 3 -40 -39 -40 -31 0 -33 2 -33
35 0 33 2 35 34 35 30 0 34 -3 38 -30z m-806 -4 c8 -35 -2 -46 -42 -46 -32 0
-34 2 -34 35 0 33 2 35 35 35 28 0 36 -4 41 -24z m2672 -68 c3 -37 2 -38 -31
-38 -31 0 -35 4 -41 31 -8 41 0 51 37 47 29 -3 32 -7 35 -40z m-2600 9 c6 -7
8 -24 5 -39 -5 -24 -10 -28 -39 -28 -32 0 -34 2 -34 34 0 19 5 36 11 38 25 8
48 6 57 -5z m412 -27 c0 -39 -1 -40 -34 -40 -31 0 -34 3 -38 35 -5 43 -3 45
39 45 32 0 33 -1 33 -40z m162 5 c5 -43 3 -45 -39 -45 -32 0 -33 1 -33 40 0
39 1 40 34 40 31 0 34 -3 38 -35z m2688 -60 c0 -34 -1 -35 -40 -35 -39 0 -40
1 -40 35 0 34 1 35 40 35 39 0 40 -1 40 -35z m244 -85 l1 -115 -37 -3 -36 -3
-4 108 c-2 59 -2 114 0 121 3 8 17 12 40 10 l36 -3 0 -115z m166 85 c0 -34 -1
-35 -40 -35 -39 0 -40 1 -40 35 0 34 1 35 40 35 39 0 40 -1 40 -35z m168 3
c-3 -30 -6 -33 -40 -36 -37 -3 -38 -3 -38 32 0 35 1 36 41 36 39 0 40 -1 37
-32z m-2221 9 c4 -7 7 -23 7 -37 1 -22 6 -26 41 -30 l40 -5 3 -77 3 -78 -41 0
-40 0 0 40 0 40 -46 0 -45 0 3 -42 c3 -43 3 -43 46 -46 l42 -3 0 -75 0 -74
-40 0 c-34 0 -41 -4 -46 -24 -3 -14 -3 -29 0 -34 9 -14 -16 -30 -44 -28 -25 1
-25 1 -30 121 l-5 120 -40 0 -40 0 -3 -77 -3 -77 -32 -5 c-18 -3 -50 -5 -72
-3 -39 2 -40 3 -43 40 l-3 37 41 0 41 0 -3 43 c-2 34 -7 42 -23 43 -58 3 -55
-1 -55 79 l0 75 34 0 c33 0 35 -2 38 -37 l3 -38 80 0 80 0 5 40 c5 38 7 40 40
40 32 0 35 3 38 30 2 17 5 35 7 41 4 15 53 15 62 1z m-879 -39 c3 -36 5 -38
37 -38 32 0 34 -2 37 -37 3 -36 5 -38 43 -43 38 -5 40 -7 40 -40 0 -33 -2 -35
-40 -40 -38 -5 -40 -7 -40 -40 0 -33 2 -35 40 -40 38 -5 40 -7 40 -40 l0 -35
-75 0 -75 0 -3 78 -3 77 -39 0 c-40 0 -40 0 -40 39 0 39 -1 40 -37 43 l-38 3
-3 78 -3 78 78 -3 78 -3 3 -37z m482 7 l0 -34 -77 -3 -78 -3 -3 -83 -3 -83
-37 3 -37 3 -5 80 -5 80 -60 2 c-33 1 -68 2 -77 2 -14 1 -18 10 -18 36 l0 35
200 0 200 0 0 -35z m-1293 -13 c1 -26 -3 -33 -23 -38 -39 -10 -54 2 -54 41 0
36 1 36 38 33 34 -3 37 -6 39 -36z m3165 -47 c5 -43 3 -45 -39 -45 -32 0 -33
1 -33 40 0 39 1 40 34 40 31 0 34 -3 38 -35z m-1144 -12 l-3 -38 -75 0 c-71 0
-75 1 -78 23 -7 46 2 52 83 52 l76 0 -3 -37z m250 0 c3 -32 2 -33 -37 -33 -46
0 -52 -11 -50 -90 3 -80 2 -82 -33 -78 -30 3 -33 6 -36 41 -3 36 -4 37 -43 37
-39 0 -39 0 -39 40 l0 40 40 0 40 0 0 40 0 41 78 -3 77 -3 3 -32z m156 21 c3
-9 6 -25 6 -35 0 -17 -6 -20 -37 -17 -39 3 -52 21 -39 54 7 19 62 18 70 -2z
m-1864 -79 l5 -80 38 -3 c37 -3 40 -6 41 -52 1 -22 6 -25 44 -28 41 -3 42 -4
42 -38 l0 -34 -79 0 -80 0 -3 38 c-3 35 -5 37 -40 40 l-38 3 0 80 0 79 -40 0
c-39 0 -40 1 -40 34 0 39 6 41 95 41 l50 0 5 -80z m1950 -19 c0 -26 -5 -36
-20 -41 -38 -12 -60 3 -60 41 0 33 1 34 40 34 39 0 40 -1 40 -34z m-2600 -107
l0 -120 -35 3 c-20 2 -35 6 -35 11 0 4 0 57 0 117 l0 110 35 0 35 0 0 -121z
m3578 28 c3 -38 3 -38 -30 -35 -26 2 -34 8 -36 26 -6 38 5 54 35 50 24 -3 28
-8 31 -41z m320 -46 c21 -1 22 -4 22 -116 l0 -115 -120 0 -120 0 0 113 c0 63
2 116 5 119 4 4 141 4 213 -1z m270 -33 l3 -38 -80 0 -81 0 0 33 c0 19 3 36 6
40 4 3 38 5 78 4 l71 -2 3 -37z m-2058 -88 l0 -120 -77 -1 c-43 0 -94 -1 -113
-2 l-35 -2 -3 117 -3 117 108 4 c59 1 111 4 116 5 4 1 7 -52 7 -118z m248 77
l3 -38 -38 3 c-31 2 -39 7 -41 26 -6 40 5 54 40 50 30 -3 33 -6 36 -41z
m-1058 -7 l0 -40 40 0 40 0 0 -40 0 -40 119 0 c66 0 122 -3 124 -7 3 -5 2 -22
0 -40 -5 -28 -9 -32 -42 -35 -35 -3 -36 -4 -36 -43 0 -40 0 -40 43 -43 l42 -3
0 -155 0 -154 -27 0 c-40 0 -51 -11 -55 -50 l-3 -35 -115 0 -115 0 -3 38 -3
37 -80 0 -79 0 0 40 0 40 -40 0 -40 0 0 40 0 40 75 0 75 0 0 -40 0 -40 84 0
85 0 3 38 c3 35 5 37 41 40 l37 3 0 -40 0 -41 40 0 40 0 0 45 c0 45 0 45 -35
45 -21 0 -35 5 -36 13 -2 40 -6 120 -7 170 l-2 58 -42 -3 -43 -3 0 -75 0 -75
-40 -5 c-38 -5 -40 -7 -43 -42 -3 -36 -5 -38 -38 -38 l-34 0 0 74 0 75 38 3
c36 3 37 4 40 46 l3 42 -85 0 -86 0 0 -40 c0 -39 -1 -40 -34 -40 -33 0 -35 2
-38 38 l-3 37 -83 3 -83 3 3 32 3 32 80 5 80 5 -3 38 c-2 20 1 38 5 38 4 1 40
3 78 5 39 2 73 3 78 3 4 1 7 19 7 41 0 39 1 40 35 40 34 0 35 -1 35 -40z
m-970 -90 l0 -120 -120 0 -120 0 0 120 0 120 120 0 120 0 0 -120z m3251 50 c6
-52 4 -55 -31 -55 -31 0 -35 3 -35 25 0 14 1 28 3 33 5 11 62 9 63 -3z m-3011
-50 l0 -39 83 -3 82 -3 3 -32 c2 -24 -1 -33 -16 -37 -11 -4 -24 -6 -28 -5 -35
6 -44 -2 -44 -41 l0 -39 83 -3 82 -3 3 -77 c2 -52 7 -79 15 -80 7 -1 23 -2 37
-2 21 -1 26 -7 30 -41 5 -38 7 -40 43 -43 l38 -3 -3 -72 -3 -72 -72 -3 -72 -3
-3 38 c-3 37 -4 38 -45 41 l-43 3 0 -45 0 -46 41 0 40 0 -3 -37 -3 -36 -117
-5 -118 -4 0 41 0 41 41 0 40 0 -3 43 c-3 41 -4 42 -40 45 l-38 3 0 75 0 74
34 0 c33 0 35 -2 38 -37 3 -37 4 -38 46 -41 l42 -3 0 45 0 46 -40 0 -40 0 0
40 0 40 -80 0 -80 0 0 34 c0 33 2 35 38 38 36 3 37 4 40 46 l3 42 -45 0 -46 0
0 -40 c0 -39 -1 -40 -35 -40 l-35 0 0 120 0 120 75 0 75 0 0 -40z m330 5 c0
-34 -1 -35 -40 -35 -37 0 -40 2 -40 28 0 37 6 42 47 42 31 0 33 -2 33 -35z
m3270 -60 l0 -35 -80 0 -80 0 0 35 0 35 80 0 80 0 0 -35z m-2385 -55 l0 -75
-75 0 -75 0 0 35 c0 33 2 35 38 38 35 3 37 5 37 36 0 41 7 48 45 44 l30 -3 0
-75z m575 45 l0 -35 -80 0 -80 0 0 35 0 35 80 0 80 0 0 -35z m1225 -75 l0 -35
-75 0 c-71 0 -75 1 -78 23 -7 47 2 53 80 50 l73 -3 0 -35z m-903 7 c7 -36 -1
-47 -38 -47 -32 0 -34 2 -34 35 0 33 2 35 34 35 27 0 35 -4 38 -23z m-1782
-21 c0 -26 -5 -36 -20 -41 -35 -11 -60 4 -60 34 0 36 6 41 47 41 31 0 33 -2
33 -34z m2855 -66 c0 -33 -2 -35 -40 -40 -38 -5 -40 -7 -43 -43 -3 -37 -4 -38
-40 -35 l-37 3 -3 64 c-4 93 -5 92 85 89 l78 -3 0 -35z m410 0 c0 -35 -3 -37
-55 -31 -11 1 -14 54 -3 65 4 4 19 6 33 4 21 -3 25 -8 25 -38z m-2215 -10 l0
-40 45 0 45 0 0 41 0 40 38 -3 37 -3 0 -75 0 -75 -77 -3 c-52 -2 -79 -7 -80
-15 -1 -7 -2 -23 -2 -37 -1 -21 -7 -26 -41 -30 -38 -5 -40 -7 -43 -42 -3 -36
-5 -38 -38 -38 l-34 0 0 74 0 75 38 3 37 3 3 83 3 82 34 0 c34 0 35 -1 35 -40z
m-973 -6 c2 -28 -1 -32 -28 -38 -40 -8 -49 -1 -49 33 0 36 8 43 44 39 26 -3
31 -7 33 -34z m-737 -9 c0 -33 -2 -35 -35 -35 -33 0 -35 2 -35 35 0 33 2 35
35 35 33 0 35 -2 35 -35z m170 -80 c0 -85 -3 -115 -12 -116 -7 0 -23 -2 -35
-5 -27 -5 -29 3 -25 132 l3 104 35 0 34 0 0 -115z m3510 -20 l0 -74 -37 -3
c-37 -3 -38 -4 -41 -45 l-3 -43 39 0 c37 0 40 -2 45 -32 3 -18 2 -37 -2 -41
-4 -4 -59 -6 -122 -5 l-114 3 0 35 c0 33 2 35 40 40 39 5 40 6 40 45 0 40 0
40 -42 43 -42 3 -43 4 -43 37 0 33 1 34 43 37 41 3 42 4 45 40 l3 37 67 3 c37
2 70 2 75 0 4 -2 7 -36 7 -77z m-2130 28 c0 -33 -1 -34 -37 -31 -35 3 -38 6
-41 35 -3 26 1 32 20 35 44 7 58 -2 58 -39z m1060 7 l0 -40 125 0 125 0 0 -39
c0 -39 1 -40 38 -43 34 -3 37 -6 40 -35 3 -30 1 -32 -35 -35 l-38 -3 0 -163
c0 -101 3 -166 10 -170 5 -3 22 -5 37 -3 19 2 28 -3 33 -18 12 -39 -3 -61 -41
-61 -34 0 -34 0 -34 -45 l0 -45 40 0 c39 0 40 -1 40 -34 0 -33 -2 -35 -37 -38
l-38 -3 -3 -82 -3 -83 -80 0 -80 0 3 38 c3 38 3 37 61 41 15 1 18 8 15 44 -3
41 -4 42 -40 45 l-38 3 0 120 0 120 38 -3 37 -3 0 45 c0 45 0 45 -37 48 -31 3
-39 8 -44 28 -8 32 2 42 46 46 l35 3 0 120 0 120 -87 3 -88 3 0 -41 c0 -40 0
-40 39 -40 33 0 40 -4 45 -24 13 -52 3 -56 -120 -56 l-114 0 0 63 c0 34 -3
106 -7 160 l-6 97 81 0 82 0 0 -40z m662 3 c3 -36 5 -38 41 -41 l37 -3 0 -160
0 -160 -32 3 c-30 3 -33 6 -36 41 -3 36 -4 37 -43 37 -39 0 -39 0 -39 40 0 34
-4 41 -24 46 -47 11 -61 2 -64 -44 -3 -43 -3 -43 -40 -40 l-37 3 -5 80 -5 80
-37 3 c-36 3 -38 5 -38 37 l0 34 123 3 122 3 3 38 c3 35 5 37 37 37 32 0 34
-2 37 -37z m-907 -83 c0 -33 -2 -35 -37 -38 -37 -3 -38 -2 -38 31 0 42 7 49
45 45 27 -3 30 -6 30 -38z m-2361 -12 c8 -39 -3 -51 -40 -46 -22 2 -30 9 -32
26 -6 37 5 52 36 52 25 0 30 -5 36 -32z m2276 -75 c0 -33 -1 -34 -32 -31 -29
3 -33 7 -36 35 -3 26 1 32 20 35 38 6 48 -2 48 -39z m-2030 -8 c0 -28 -4 -35
-19 -35 -11 0 -26 -3 -35 -6 -13 -5 -16 2 -16 35 0 40 1 41 35 41 33 0 35 -2
35 -35z m3685 -65 c0 -33 -2 -35 -37 -38 -21 -2 -38 -9 -39 -15 0 -7 0 -42 1
-79 l1 -68 -40 0 -41 0 0 120 0 121 78 -3 77 -3 0 -35z m-3035 -16 c0 -32 -2
-34 -35 -34 -33 0 -35 2 -35 34 0 25 5 36 18 38 36 8 52 -3 52 -38z m1308 9
c3 -32 2 -33 -37 -33 -40 0 -41 1 -41 36 0 35 1 35 38 32 34 -3 37 -6 40 -35z
m-83 -123 l0 -75 -35 0 c-33 0 -35 2 -40 40 -5 38 -7 40 -42 43 -36 3 -38 5
-38 38 l0 35 78 -3 77 -3 0 -75z m1067 43 c3 -37 4 -38 46 -41 41 -3 42 -4 42
-37 l0 -34 -122 -3 -123 -3 -3 -43 c-3 -43 -3 -43 -40 -40 l-37 3 -3 78 -3 77
53 1 c122 3 113 0 116 42 3 35 5 37 37 37 32 0 34 -2 37 -37z m-2124 -15 c3
-37 4 -38 43 -38 39 0 39 0 39 -40 l0 -40 40 0 41 0 -3 -77 -3 -78 -32 -3
c-32 -3 -33 -2 -33 37 0 43 1 42 -60 45 -22 1 -25 6 -28 44 -3 42 -3 42 -43
42 -39 0 -39 0 -39 40 l0 40 -40 0 c-39 0 -40 1 -40 35 l0 36 78 -3 77 -3 3
-37z m892 -68 c0 -39 -1 -40 -34 -40 -31 0 -34 3 -38 35 -5 43 -3 45 39 45 32
0 33 -1 33 -40z m1732 3 c3 -36 5 -38 40 -41 35 -3 37 -5 40 -40 3 -37 4 -37
51 -40 l47 -3 0 40 c0 40 1 41 35 41 l35 0 2 -80 c4 -171 8 -154 -37 -160 -38
-5 -40 -7 -43 -42 -3 -36 -5 -38 -38 -38 -20 0 -35 5 -35 13 -1 6 -3 19 -4 27
-1 8 -3 21 -4 28 -1 8 -24 12 -81 12 l-80 0 0 34 c0 33 2 35 38 38 36 3 37 4
40 45 l3 42 -43 3 c-43 3 -43 3 -46 46 -3 42 -3 42 -43 42 -38 0 -39 1 -39 35
l0 35 79 0 80 0 3 -37z m-2790 -10 c3 -36 5 -38 43 -43 38 -5 40 -7 43 -42 3
-35 5 -37 40 -40 35 -3 37 -5 42 -43 5 -37 7 -39 40 -40 33 0 35 -2 35 -35 0
-39 4 -37 -92 -39 l-63 -1 0 -80 0 -80 -40 0 -40 0 0 40 0 41 -157 -2 -158 -1
-3 35 c-3 35 -2 36 35 39 36 3 38 5 41 41 3 35 5 37 38 37 33 0 34 -1 34 -40
l0 -41 83 3 82 3 3 43 3 42 -79 0 -80 0 -4 31 c-5 34 12 49 57 49 25 0 26 3
23 43 -3 41 -4 42 -40 45 -36 3 -38 5 -38 38 l0 34 74 0 75 0 3 -37z m2456
-75 c3 -37 4 -38 43 -38 39 0 39 0 39 -40 l0 -40 -41 0 -40 0 3 -42 3 -43 83
-3 82 -3 0 -34 c0 -32 -2 -34 -37 -37 -36 -3 -38 -5 -43 -43 -5 -38 -7 -40
-40 -40 -33 0 -35 2 -40 40 -5 38 -7 40 -42 43 -35 3 -37 5 -40 40 -3 35 -5
37 -43 42 -37 5 -40 8 -43 38 -3 30 -2 32 31 32 50 0 61 19 55 95 -3 35 -3 67
0 70 4 3 20 5 37 3 27 -3 30 -7 33 -40z m-2698 -48 l0 -80 -34 0 c-33 0 -35 2
-38 38 -3 35 -5 37 -43 42 -32 4 -41 9 -43 28 -7 46 2 52 83 52 l75 0 0 -80z
m2452 -25 c5 -43 3 -45 -39 -45 -31 0 -33 2 -33 33 0 41 5 47 41 47 23 0 27
-5 31 -35z m496 -8 l3 -38 -38 3 c-31 2 -39 7 -41 26 -6 40 5 54 40 50 30 -3
33 -6 36 -41z m-1808 -167 l0 -120 -35 0 -35 0 0 120 0 120 35 0 35 0 0 -120z
m1320 5 c0 -34 -1 -35 -40 -35 -39 0 -40 1 -40 35 0 34 1 35 40 35 39 0 40 -1
40 -35z m910 0 c0 -26 -4 -35 -17 -36 -47 -3 -63 9 -63 49 0 19 5 22 40 22 39
0 40 -1 40 -35z m-4190 -20 c0 -33 -2 -35 -35 -35 -33 0 -35 2 -35 35 0 33 2
35 35 35 33 0 35 -2 35 -35z m3772 -62 c3 -35 6 -38 41 -44 35 -6 66 9 51 24
-4 3 -3 18 0 32 6 22 11 26 39 23 29 -3 32 -6 35 -40 2 -21 9 -38 15 -39 7 0
26 -2 42 -2 28 -2 30 -5 33 -44 l3 -43 79 0 c82 0 90 -5 90 -51 0 -22 8 -21
-145 -20 -66 1 -137 -2 -157 -5 -36 -6 -38 -7 -38 -45 0 -38 -1 -39 -35 -39
-32 0 -35 2 -35 29 0 50 -9 61 -50 61 -38 0 -39 1 -42 38 -3 35 -5 37 -43 42
-38 5 -40 7 -43 43 l-3 37 45 0 46 0 0 40 c0 39 1 40 34 40 33 0 35 -2 38 -37z
m336 0 c-3 -36 -5 -38 -38 -38 -29 0 -36 4 -38 23 -6 39 5 52 43 52 36 0 36
-1 33 -37z m-3453 -13 c0 -33 -2 -35 -37 -38 -37 -3 -38 -2 -38 31 0 42 7 49
45 45 27 -3 30 -6 30 -38z m-165 -4 c0 -33 -2 -35 -37 -38 -37 -3 -38 -4 -41
-45 l-3 -43 125 0 126 0 0 -35 c0 -33 -2 -35 -32 -35 -49 0 -60 -12 -56 -56 3
-38 4 -39 43 -39 39 0 40 -1 40 -35 l0 -35 -117 -3 -118 -3 0 35 c0 33 2 35
38 38 37 3 37 3 37 48 l0 45 -75 0 -75 0 -5 80 -5 80 -40 5 c-23 3 -40 10 -39
18 1 6 2 21 3 32 1 19 8 20 116 20 l115 0 0 -34z m2870 -106 l0 -80 -74 0 -74
0 -7 65 c-10 93 -9 95 80 95 l75 0 0 -80z m-2380 -10 l0 -80 -39 0 c-40 0 -40
0 -43 -42 -3 -40 -5 -43 -35 -46 -31 -3 -32 -2 -35 40 -3 42 -4 43 -40 46 -36
3 -38 5 -38 37 0 32 2 34 38 37 33 3 37 6 40 33 5 54 7 55 82 55 l70 0 0 -80z
m820 45 l0 -35 -80 0 -80 0 0 35 0 35 80 0 80 0 0 -35z m240 0 c0 -33 -2 -35
-35 -35 -33 0 -35 2 -35 35 0 33 2 35 35 35 33 0 35 -2 35 -35z m-1792 -75 c4
-143 6 -140 -83 -140 l-75 0 0 34 c0 33 2 35 38 38 36 3 37 4 40 46 l3 42 -45
0 -46 0 0 -40 c0 -39 -1 -40 -35 -40 l-35 0 0 73 c0 41 3 77 7 81 4 3 57 5
117 4 l111 -3 3 -95z m-328 14 l0 -75 -37 3 c-30 2 -38 7 -39 23 -3 55 -3 55
-44 55 -39 0 -40 1 -40 35 l0 35 80 0 80 0 0 -76z m1628 -21 c-3 -35 -6 -38
-33 -38 -24 0 -31 5 -33 23 -6 38 5 52 38 52 30 0 31 -2 28 -37z m412 3 l0
-34 -75 -4 -75 -3 0 38 0 37 75 0 75 0 0 -34z m1150 -1 c0 -33 -2 -35 -35 -35
-33 0 -35 2 -35 35 0 33 2 35 35 35 33 0 35 -2 35 -35z m-1480 -85 c0 -39 -1
-40 -35 -40 -33 0 -35 2 -35 34 0 28 4 35 23 39 46 9 47 8 47 -33z m990 -40
l0 -80 -35 0 c-34 0 -35 1 -37 43 0 23 -2 56 -3 72 -3 41 1 45 41 45 l34 0 0
-80z m328 37 l3 -38 -78 3 -78 3 -3 38 -3 38 78 -3 78 -3 3 -38z m-2208 -7 c0
-39 -1 -40 -35 -40 -35 0 -37 2 -37 40 0 38 2 40 37 40 34 0 35 -1 35 -40z
m730 5 c0 -33 -2 -35 -35 -35 -33 0 -35 2 -35 35 0 33 2 35 35 35 33 0 35 -2
35 -35z m-1470 -49 l0 -73 -31 -7 c-45 -9 -117 -7 -123 2 -3 5 -2 22 3 38 6
23 14 30 42 34 31 5 34 8 37 43 3 35 5 37 38 37 l34 0 0 -74z m1960 -71 l0
-74 -32 -6 c-18 -3 -107 -4 -198 -3 l-165 3 -3 38 -3 37 40 0 41 0 0 40 0 39
68 3 c37 2 109 2 160 0 l92 -3 0 -74z m1073 68 c3 -10 5 -46 6 -80 l2 -63 -41
0 -40 0 0 80 0 80 34 0 c25 0 36 -5 39 -17z m-2211 -35 c3 -38 6 -43 28 -44
50 -1 50 -1 50 -78 l0 -74 -71 -4 c-39 -2 -73 -1 -75 1 -7 7 -4 227 3 234 3 4
19 7 34 7 26 0 28 -3 31 -42z m648 -79 c0 -39 -1 -40 -32 -37 -26 2 -34 8 -36
26 -6 37 5 52 38 52 28 0 30 -2 30 -41z m1072 -41 l3 -83 35 -2 c19 -1 56 1
83 4 l47 5 0 80 0 79 38 -3 37 -3 3 -118 3 -117 -163 2 c-178 3 -163 -2 -167
61 -1 13 -10 17 -36 17 l-35 0 0 80 0 80 75 0 74 0 3 -82z m658 48 c0 -30 -3
-34 -30 -38 -34 -5 -50 7 -50 37 0 29 8 35 47 35 31 0 33 -2 33 -34z m-247
-83 c3 -21 6 -57 7 -80 l1 -43 -41 0 -40 0 0 80 0 80 34 0 c32 0 35 -2 39 -37z
m-1563 -88 c0 -33 -2 -35 -35 -35 -33 0 -35 2 -35 35 0 33 2 35 35 35 33 0 35
-2 35 -35z m330 -1 c0 -35 -1 -35 -37 -32 -35 3 -38 6 -41 36 -3 31 -2 32 37
32 40 0 41 -1 41 -36z m330 -84 l0 -120 -120 0 -120 0 0 120 0 120 120 0 120
0 0 -120z m820 0 c0 -39 -1 -40 -35 -40 -34 0 -35 1 -35 40 0 39 1 40 35 40
34 0 35 -1 35 -40z m88 -87 c3 -43 3 -43 43 -43 l39 0 0 -80 0 -80 -75 0 c-71
0 -75 1 -76 23 0 12 -3 62 -5 111 -6 110 -3 118 38 114 31 -3 33 -6 36 -45z
m-578 -163 c0 -39 -1 -40 -35 -40 -34 0 -35 1 -35 40 0 39 1 40 35 40 34 0 35
-1 35 -40z m-572 -167 c3 -28 -1 -33 -22 -39 -41 -10 -56 1 -56 41 0 36 1 36
38 33 34 -3 37 -6 40 -35z"/>
<path d="M2340 4260 l0 -40 40 0 40 0 0 40 0 40 -40 0 -40 0 0 -40z"/>
<path d="M4152 2488 c3 -43 3 -43 46 -46 l42 -3 0 45 0 46 -46 0 -45 0 3 -42z"/>
<path d="M2357 2514 c-4 -4 -7 -25 -7 -46 l0 -39 43 3 c42 3 42 3 42 43 0 39
-1 40 -35 43 -20 2 -39 0 -43 -4z"/>
<path d="M595 2501 c-24 -5 -31 -12 -33 -34 -5 -38 14 -57 52 -54 29 2 31 5
34 43 3 46 -6 54 -53 45z"/>
<path d="M2370 665 l0 -45 40 0 40 0 0 45 0 45 -40 0 -40 0 0 -45z"/>
<path d="M3310 4760 l0 -40 40 0 40 0 0 40 0 40 -40 0 -40 0 0 -40z"/>
<path d="M70 4490 c0 -231 2 -280 14 -287 8 -4 137 -7 286 -5 l271 3 -2 242
c-1 133 -5 261 -7 285 l-4 42 -279 0 -279 0 0 -280z m474 192 c4 -6 10 -358 7
-389 -1 -10 -47 -13 -194 -13 l-194 0 -6 113 c-4 61 -7 151 -7 199 l0 87 133
3 c72 2 160 4 194 5 35 1 65 -2 67 -5z"/>
<path d="M237 4604 c-4 -4 -7 -61 -7 -126 l0 -119 123 3 122 3 6 60 c3 33 3
62 0 65 -3 3 -6 30 -6 60 l0 55 -116 3 c-63 1 -118 -1 -122 -4z"/>
<path d="M722 4488 c3 -42 4 -43 38 -43 34 0 35 1 38 43 l3 42 -41 0 -41 0 3
-42z"/>
<path d="M3237 4473 c-4 -3 -7 -24 -7 -45 0 -38 0 -38 39 -38 44 0 58 20 47
66 -5 19 -13 24 -40 24 -18 0 -36 -3 -39 -7z"/>
<path d="M3487 4314 c-4 -4 -7 -25 -7 -46 0 -39 0 -39 38 -36 36 3 37 4 37 43
0 37 -2 40 -30 43 -17 2 -34 0 -38 -4z"/>
<path d="M4182 4163 l-53 -4 3 -37 3 -37 83 -3 83 -3 -3 43 c-3 48 -6 49 -116
41z"/>
<path d="M4384 4156 c-3 -8 -4 -27 -2 -43 3 -25 7 -28 38 -26 19 0 38 1 43 2
4 1 7 19 7 41 l0 40 -40 0 c-26 0 -43 -5 -46 -14z"/>
<path d="M3480 4110 l0 -40 40 0 40 0 0 40 0 40 -40 0 -40 0 0 -40z"/>
<path d="M4550 4051 c0 -40 -1 -41 -37 -43 -21 -1 -47 -3 -58 -4 -11 -1 -51
-2 -88 -3 l-68 -1 3 -37 3 -38 123 -3 122 -3 0 -69 c0 -39 1 -73 3 -77 1 -5
-17 -9 -40 -11 l-43 -3 0 -80 0 -79 -40 0 -40 0 0 -45 0 -45 124 0 125 0 3
-37 c3 -37 4 -38 43 -38 40 0 40 0 43 43 l3 42 -45 0 -46 0 0 40 0 40 -40 0
c-40 0 -40 0 -40 40 l0 39 83 3 82 3 0 35 c0 33 -2 35 -40 40 -38 5 -40 7 -43
43 l-3 37 40 0 41 0 0 85 0 85 -39 0 c-39 0 -40 1 -43 38 -3 36 -4 37 -45 40
l-43 3 0 -40z m80 -66 c14 -37 3 -55 -36 -55 -20 0 -34 5 -35 13 0 6 -2 20 -4
29 -7 38 61 49 75 13z"/>
<path d="M3652 4072 c-8 -6 -12 -23 -10 -43 3 -32 5 -34 43 -34 l40 0 0 40 c0
37 -2 40 -30 43 -16 1 -36 -2 -43 -6z"/>
<path d="M4310 3390 c0 -40 0 -40 39 -40 37 0 39 2 43 35 2 20 2 38 -1 40 -2
3 -22 5 -43 5 -38 0 -38 0 -38 -40z"/>
<path d="M4480 3310 l0 -40 85 0 85 0 0 40 0 40 -85 0 -85 0 0 -40z"/>
<path d="M4394 3176 c-3 -8 -4 -27 -2 -43 3 -24 8 -29 43 -33 38 -5 40 -7 43
-42 3 -38 4 -38 48 -38 l44 0 0 40 0 39 83 3 82 3 0 40 0 40 -85 0 -85 0 -3
-37 c-3 -37 -4 -38 -43 -38 -39 0 -39 0 -39 40 l0 40 -40 0 c-26 0 -43 -5 -46
-14z"/>
<path d="M80 2005 l0 -85 40 0 40 0 0 85 0 85 -40 0 -40 0 0 -85z"/>
<path d="M407 1844 c-4 -4 -7 -25 -7 -46 l0 -39 43 3 c42 3 42 3 42 43 0 39
-1 40 -35 43 -20 2 -39 0 -43 -4z"/>
<path d="M74 1586 c-3 -8 -4 -27 -2 -43 3 -25 7 -28 46 -31 l42 -3 0 45 0 46
-40 0 c-26 0 -43 -5 -46 -14z"/>
<path d="M3014 1446 c-3 -8 -4 -27 -2 -43 3 -25 7 -28 46 -31 l42 -3 0 45 0
46 -40 0 c-26 0 -43 -5 -46 -14z"/>
<path d="M2612 998 c3 -43 3 -43 46 -46 l42 -3 0 45 0 46 -46 0 -45 0 3 -42z"/>
<path d="M4100 921 c0 -34 -4 -41 -22 -46 -13 -2 -32 -4 -43 -2 -18 2 -20 -4
-21 -78 l-1 -80 -37 -3 c-36 -3 -36 -4 -36 -48 0 -46 -1 -45 55 -48 16 -1 21
-9 23 -38 l3 -38 -80 0 -81 0 0 -45 0 -45 193 -1 c293 -1 461 -9 469 -22 4 -7
8 -22 8 -34 0 -19 -6 -22 -42 -25 -43 -3 -43 -3 -43 -43 l0 -40 80 -3 c85 -3
95 -9 95 -54 l0 -28 -170 0 -170 0 0 -45 0 -45 173 -1 c94 0 208 -2 252 -2
l80 -2 0 45 c0 45 0 45 -38 48 -37 3 -38 4 -35 40 3 35 5 37 41 40 36 3 37 4
37 42 0 46 -8 50 -100 50 l-69 0 -3 38 c-3 35 -5 37 -43 42 -38 5 -40 7 -43
43 l-3 37 80 0 80 0 3 -42 c3 -43 3 -43 43 -43 l40 0 0 45 c0 34 -4 44 -14 42
-38 -8 -60 8 -63 46 -3 36 -4 37 -45 40 -42 3 -42 3 -45 45 l-3 42 -82 3 -83
3 0 79 0 80 -124 0 -125 0 -3 43 c-3 42 -3 42 -45 45 l-43 3 0 -40z m250 -261
l0 -120 -120 0 -120 0 0 104 c0 57 -3 111 -6 120 -5 14 9 16 120 16 l126 0 0
-120z"/>
<path d="M4191 696 c-12 -15 -11 -52 2 -73 9 -14 73 -18 80 -5 2 4 2 26 -1 50
-4 40 -6 42 -37 42 -18 0 -38 -6 -44 -14z"/>
<path d="M4680 838 c0 -49 12 -60 56 -56 42 3 51 18 40 64 -6 21 -12 24 -51
24 -44 0 -45 -1 -45 -32z"/>
<path d="M235 690 l-160 -5 -3 -293 -2 -292 287 2 288 3 3 296 2 296 -127 -1
c-71 -1 -200 -3 -288 -6z m325 -288 l0 -199 -97 -6 c-54 -4 -144 -7 -200 -7
l-103 0 0 205 0 205 200 0 200 0 0 -198z"/>
<path d="M253 523 c-22 -4 -23 -8 -23 -129 l0 -125 128 3 127 3 0 125 0 125
-105 1 c-58 1 -115 0 -127 -3z"/>
<path d="M1957 613 c-9 -8 -9 -46 -1 -67 4 -11 19 -16 45 -16 l39 0 0 45 0 45
-38 0 c-21 0 -42 -3 -45 -7z"/>
<path d="M977 194 c-4 -4 -7 -24 -7 -45 0 -27 5 -39 18 -42 30 -9 141 -2 153
10 6 6 9 26 7 44 l-3 34 -80 3 c-45 1 -84 0 -88 -4z"/>
</g>
</svg>
